<mxfile host="65bd71144e">
    <diagram id="ldE0Lab0Q4reHGOU3hBw" name="第1頁">
        <mxGraphModel dx="857" dy="960" grid="1" gridSize="10" guides="1" tooltips="1" connect="1" arrows="1" fold="1" page="1" pageScale="1" pageWidth="827" pageHeight="1169" math="0" shadow="0">
            <root>
                <mxCell id="0"/>
                <mxCell id="1" parent="0"/>
                <mxCell id="2" value="&lt;h1&gt;Game Theory Mind Map&lt;/h1&gt;&lt;p&gt;Author: Lucas Lee 12/28, 2022&lt;/p&gt;&lt;p&gt;Record the thought process for this project.&lt;/p&gt;" style="text;html=1;strokeColor=default;fillColor=none;spacing=5;spacingTop=-20;whiteSpace=wrap;overflow=hidden;rounded=0;" vertex="1" parent="1">
                    <mxGeometry x="20" y="20" width="280" height="100" as="geometry"/>
                </mxCell>
                <mxCell id="3" value="main" style="shape=cylinder3;whiteSpace=wrap;html=1;boundedLbl=1;backgroundOutline=1;size=15;strokeColor=default;" vertex="1" parent="1">
                    <mxGeometry x="150" y="280" width="60" height="80" as="geometry"/>
                </mxCell>
                <mxCell id="21" value="Daily Task" style="swimlane;startSize=20;horizontal=1;childLayout=flowLayout;flowOrientation=north;resizable=0;interRankCellSpacing=50;containerType=tree;strokeColor=default;" vertex="1" parent="1">
                    <mxGeometry x="271" y="249" width="270" height="280" as="geometry"/>
                </mxCell>
                <mxCell id="22" value="Start" style="whiteSpace=wrap;html=1;strokeColor=default;" vertex="1" parent="21">
                    <mxGeometry x="85" y="40" width="100" height="40" as="geometry"/>
                </mxCell>
                <mxCell id="23" value="Task 1&lt;span style=&quot;white-space: pre&quot;&gt;&#9;&lt;/span&gt;" style="whiteSpace=wrap;html=1;strokeColor=default;" vertex="1" parent="21">
                    <mxGeometry x="20" y="130" width="100" height="40" as="geometry"/>
                </mxCell>
                <mxCell id="24" value="" style="html=1;curved=1;noEdgeStyle=1;orthogonal=1;" edge="1" parent="21" source="22" target="23">
                    <mxGeometry relative="1" as="geometry">
                        <Array as="points">
                            <mxPoint x="112.5" y="92"/>
                            <mxPoint x="70" y="118"/>
                        </Array>
                    </mxGeometry>
                </mxCell>
                <mxCell id="25" value="Task 2" style="whiteSpace=wrap;html=1;strokeColor=default;" vertex="1" parent="21">
                    <mxGeometry x="150" y="130" width="100" height="40" as="geometry"/>
                </mxCell>
                <mxCell id="26" value="" style="html=1;curved=1;noEdgeStyle=1;orthogonal=1;" edge="1" parent="21" source="22" target="25">
                    <mxGeometry relative="1" as="geometry">
                        <Array as="points">
                            <mxPoint x="157.5" y="92"/>
                            <mxPoint x="200" y="118"/>
                        </Array>
                    </mxGeometry>
                </mxCell>
                <mxCell id="27" value="End" style="whiteSpace=wrap;html=1;strokeColor=default;" vertex="1" parent="21">
                    <mxGeometry x="85" y="220" width="100" height="40" as="geometry"/>
                </mxCell>
                <mxCell id="28" value="" style="html=1;curved=1;noEdgeStyle=1;orthogonal=1;" edge="1" parent="21" source="23" target="27">
                    <mxGeometry relative="1" as="geometry">
                        <Array as="points">
                            <mxPoint x="70" y="182"/>
                            <mxPoint x="112.5" y="208"/>
                        </Array>
                    </mxGeometry>
                </mxCell>
                <mxCell id="29" value="" style="html=1;curved=1;noEdgeStyle=1;orthogonal=1;" edge="1" parent="21" source="25" target="27">
                    <mxGeometry relative="1" as="geometry">
                        <Array as="points">
                            <mxPoint x="200" y="182"/>
                            <mxPoint x="157.5" y="208"/>
                        </Array>
                    </mxGeometry>
                </mxCell>
            </root>
        </mxGraphModel>
    </diagram>
</mxfile>